<svg width="150" height="151" viewBox="0 0 150 151" fill="none" xmlns="http://www.w3.org/2000/svg">
<path d="M112.5 16.5029H125C126.658 16.5029 128.247 17.1597 129.419 18.3286C130.592 19.4976 131.25 21.0831 131.25 22.7363V141.17C131.25 142.824 130.592 144.409 129.419 145.578C128.247 146.747 126.658 147.404 125 147.404H25C23.3424 147.404 21.7527 146.747 20.5806 145.578C19.4085 144.409 18.75 142.824 18.75 141.17V22.7363C18.75 21.0831 19.4085 19.4976 20.5806 18.3286C21.7527 17.1597 23.3424 16.5029 25 16.5029H37.5" fill="#00CDFF"/>
<path d="M50 28.9697H34.375C33.5462 28.9697 32.7513 29.2981 32.1653 29.8826C31.5792 30.4671 31.25 31.2598 31.25 32.0864V131.82C31.25 132.647 31.5792 133.44 32.1653 134.024C32.7513 134.609 33.5462 134.937 34.375 134.937H93.75L118.75 110.004V32.0864C118.75 31.2598 118.421 30.4671 117.835 29.8826C117.249 29.2981 116.454 28.9697 115.625 28.9697H100" fill="white"/>
<path d="M87.5 16.5029C87.5 13.1965 86.183 10.0255 83.8388 7.68756C81.4946 5.34959 78.3152 4.03613 75 4.03613C71.6848 4.03613 68.5054 5.34959 66.1612 7.68756C63.817 10.0255 62.5 13.1965 62.5 16.5029H50V35.203H100V16.5029H87.5Z" fill="#E3E3E3"/>
<path d="M118.75 110.004L93.75 134.937V113.121C93.75 112.294 94.0792 111.501 94.6653 110.917C95.2513 110.332 96.0462 110.004 96.875 110.004H118.75Z" fill="#E3E3E3"/>
<path d="M50 69.4868L54.9563 64.5437C56.1283 63.3751 57.7177 62.7187 59.375 62.7187C61.0323 62.7187 62.6217 63.3751 63.7937 64.5437L64.3313 65.0798C65.5033 66.2484 67.0927 66.9048 68.75 66.9048C70.4073 66.9048 71.9967 66.2484 73.1688 65.0798L73.7063 64.5437C74.8783 63.3751 76.4677 62.7187 78.125 62.7187C79.7823 62.7187 81.3717 63.3751 82.5438 64.5437L83.0813 65.0798C84.2533 66.2484 85.8427 66.9048 87.5 66.9048C89.1573 66.9048 90.7467 66.2484 91.9188 65.0798L96.875 60.1367" stroke="#191919" stroke-width="4" stroke-linecap="round" stroke-linejoin="round"/>
<path d="M50 94.4204L54.9563 89.4773C56.1283 88.3087 57.7177 87.6523 59.375 87.6523C61.0323 87.6523 62.6217 88.3087 63.7937 89.4773L64.3313 90.0134C65.5033 91.182 67.0927 91.8384 68.75 91.8384C70.4073 91.8384 71.9967 91.182 73.1688 90.0134L73.7063 89.4773C74.8783 88.3087 76.4677 87.6523 78.125 87.6523C79.7823 87.6523 81.3717 88.3087 82.5438 89.4773L83.0813 90.0134C84.2533 91.182 85.8427 91.8384 87.5 91.8384C89.1573 91.8384 90.7467 91.182 91.9188 90.0134L96.875 85.0703" stroke="#191919" stroke-width="4" stroke-linecap="round" stroke-linejoin="round"/>
<path d="M50 28.9697H34.375C33.5462 28.9697 32.7513 29.2981 32.1653 29.8826C31.5792 30.4671 31.25 31.2598 31.25 32.0864V131.82C31.25 132.647 31.5792 133.44 32.1653 134.024C32.7513 134.609 33.5462 134.937 34.375 134.937H93.75L118.75 110.004V32.0864C118.75 31.2598 118.421 30.4671 117.835 29.8826C117.249 29.2981 116.454 28.9697 115.625 28.9697H100" stroke="#191919" stroke-linecap="round" stroke-linejoin="round"/>
<path d="M87.5 16.5029C87.5 13.1965 86.183 10.0255 83.8388 7.68756C81.4946 5.34959 78.3152 4.03613 75 4.03613C71.6848 4.03613 68.5054 5.34959 66.1612 7.68756C63.817 10.0255 62.5 13.1965 62.5 16.5029H50V35.203H100V16.5029H87.5Z" stroke="#191919" stroke-linecap="round" stroke-linejoin="round"/>
<path d="M118.75 110.004L93.75 134.937V113.121C93.75 112.294 94.0792 111.501 94.6653 110.917C95.2513 110.332 96.0462 110.004 96.875 110.004H118.75Z" stroke="#191919" stroke-linecap="round" stroke-linejoin="round"/>
<path d="M112.5 16.5029H125C126.658 16.5029 128.247 17.1597 129.419 18.3286C130.592 19.4976 131.25 21.0831 131.25 22.7363V141.17C131.25 142.824 130.592 144.409 129.419 145.578C128.247 146.747 126.658 147.404 125 147.404H25C23.3424 147.404 21.7527 146.747 20.5806 145.578C19.4085 144.409 18.75 142.824 18.75 141.17V22.7363C18.75 21.0831 19.4085 19.4976 20.5806 18.3286C21.7527 17.1597 23.3424 16.5029 25 16.5029H37.5" stroke="#191919" stroke-linecap="round" stroke-linejoin="round"/>
</svg>
