<svg width="150" height="150" viewBox="0 0 150 150" fill="none" xmlns="http://www.w3.org/2000/svg">
<path d="M145.43 74.9996C145.43 70.0934 143.958 65.3003 141.203 61.2409C138.448 57.1809 134.538 54.0415 129.979 52.2303C131.927 47.7247 132.475 42.7384 131.555 37.9172C130.634 33.0959 128.287 28.6622 124.816 25.1915C121.345 21.7203 116.913 19.3715 112.092 18.4503C107.27 17.529 102.284 18.0771 97.7784 20.0234C95.9684 15.4621 92.8297 11.5496 88.7703 8.79277C84.7103 6.0359 79.9159 4.56152 75.0084 4.56152C70.1016 4.56152 65.3066 6.0359 61.2472 8.79277C57.1872 11.5496 54.0491 15.4621 52.2391 20.0234C47.7328 18.0753 42.7453 17.5253 37.9234 18.4459C33.1009 19.3665 28.6666 21.7153 25.1953 25.1865C21.7241 28.6578 19.3759 33.0922 18.4553 37.914C17.5347 42.7365 18.0841 47.724 20.0322 52.2303C15.4709 54.0403 11.5584 57.1784 8.80156 61.2384C6.04469 65.2978 4.57031 70.0921 4.57031 74.9996C4.57031 79.9072 6.04469 84.7015 8.80156 88.7615C11.5584 92.8209 15.4709 95.9596 20.0322 97.769C18.0847 102.275 17.5359 107.261 18.4566 112.083C19.3772 116.903 21.7247 121.337 25.1953 124.808C28.6653 128.279 33.0984 130.628 37.9197 131.549C42.7403 132.47 47.7272 131.922 52.2328 129.976C54.0428 134.537 57.1809 138.45 61.2409 141.207C65.3009 143.963 70.0953 145.438 75.0028 145.438C79.9097 145.438 84.7047 143.963 88.7641 141.207C92.8241 138.45 95.9622 134.537 97.7722 129.976C102.278 131.922 107.265 132.47 112.085 131.549C116.907 130.628 121.34 128.279 124.81 124.808C128.281 121.337 130.628 116.903 131.548 112.083C132.469 107.261 131.92 102.275 129.973 97.769C134.533 95.9584 138.445 92.8203 141.202 88.7603C143.957 84.7003 145.43 79.9065 145.43 74.9996Z" fill="#FFEF5E"/>
<path d="M124.798 25.1984C121.329 21.7284 116.899 19.3803 112.08 18.4578C107.262 17.5346 102.277 18.0803 97.7722 20.0234C95.9622 15.4621 92.8234 11.5496 88.7641 8.79277C84.7041 6.0359 79.9097 4.56152 75.0022 4.56152C70.0953 4.56152 65.3003 6.0359 61.2409 8.79277C57.1809 11.5496 54.0428 15.4621 52.2328 20.0234C47.7272 18.0771 42.7403 17.529 37.9197 18.4503C33.0984 19.3715 28.6653 21.7203 25.1953 25.1915C21.7253 28.6628 19.3772 33.0959 18.4566 37.9171C17.5359 42.7384 18.0847 47.7246 20.0322 52.2303C15.4709 54.0403 11.5584 57.1784 8.80156 61.2384C6.04469 65.2978 4.57031 70.0921 4.57031 74.9996C4.57031 79.9071 6.04469 84.7015 8.80156 88.7615C11.5584 92.8209 15.4709 95.9596 20.0322 97.769C18.0878 102.275 17.5416 107.261 18.4647 112.081C19.3872 116.9 21.7359 121.332 25.2072 124.801L124.798 25.1984Z" fill="#FFF9BF"/>
<path d="M59.6914 59.6901C59.6914 56.0564 60.7689 52.5039 62.7877 49.4826C64.8064 46.4614 67.6758 44.1064 71.0327 42.7158C74.3902 41.3251 78.0839 40.9614 81.6483 41.6708C85.212 42.3795 88.4858 44.1289 91.0552 46.6989C93.6245 49.2683 95.3745 52.542 96.0833 56.1058C96.792 59.6695 96.4283 63.3639 95.0377 66.7208C93.647 70.0776 91.2927 72.9476 88.2708 74.9658C85.2495 76.9851 81.697 78.0626 78.0639 78.0626V96.4345" stroke="#191919" stroke-width="5" stroke-linecap="round" stroke-linejoin="round"/>
<path d="M145.43 74.9997C145.43 70.0934 143.958 65.3003 141.203 61.2409C138.448 57.1809 134.538 54.0415 129.979 52.2303C131.927 47.7247 132.475 42.7384 131.555 37.9172C130.634 33.0959 128.287 28.6622 124.816 25.1915C121.345 21.7203 116.913 19.3715 112.092 18.4503C107.27 17.529 102.284 18.0771 97.7784 20.0234C95.9684 15.4621 92.8297 11.5496 88.7703 8.79277C84.7103 6.0359 79.9159 4.56152 75.0084 4.56152C70.1016 4.56152 65.3066 6.0359 61.2472 8.79277C57.1872 11.5496 54.0491 15.4621 52.2391 20.0234C47.7328 18.0753 42.7453 17.5253 37.9234 18.4459C33.1009 19.3665 28.6666 21.7153 25.1953 25.1865C21.7241 28.6578 19.3759 33.0922 18.4553 37.914C17.5347 42.7365 18.0841 47.724 20.0322 52.2303C15.4709 54.0403 11.5584 57.1784 8.80156 61.2384C6.04469 65.2978 4.57031 70.0922 4.57031 74.9997C4.57031 79.9072 6.04469 84.7015 8.80156 88.7615C11.5584 92.8209 15.4709 95.9597 20.0322 97.769C18.0847 102.275 17.5359 107.261 18.4566 112.083C19.3772 116.903 21.7247 121.337 25.1953 124.808C28.6653 128.279 33.0984 130.628 37.9197 131.549C42.7403 132.47 47.7272 131.922 52.2328 129.976C54.0428 134.537 57.1809 138.45 61.2409 141.207C65.3009 143.963 70.0953 145.438 75.0028 145.438C79.9097 145.438 84.7047 143.963 88.7641 141.207C92.8241 138.45 95.9622 134.537 97.7722 129.976C102.278 131.922 107.265 132.47 112.085 131.549C116.907 130.628 121.34 128.279 124.81 124.808C128.281 121.337 130.628 116.903 131.548 112.083C132.469 107.261 131.92 102.275 129.973 97.769C134.533 95.9584 138.445 92.8203 141.202 88.7603C143.957 84.7003 145.43 79.9065 145.43 74.9997Z" stroke="#191919" stroke-linecap="round" stroke-linejoin="round"/>
<path d="M78.0645 111.745C77.2188 111.745 76.5332 111.059 76.5332 110.214C76.5332 109.368 77.2188 108.683 78.0645 108.683" stroke="#191919" stroke-width="5"/>
<path d="M78.0645 111.745C78.9101 111.745 79.5951 111.059 79.5951 110.214C79.5951 109.368 78.9101 108.683 78.0645 108.683" stroke="#191919" stroke-width="5"/>
</svg>
