<svg width="163" height="163" viewBox="0 0 163 163" fill="none" xmlns="http://www.w3.org/2000/svg">
<path d="M110.712 54.4402V55.4402H111.712H145.337C146.16 55.4891 146.959 55.7415 147.66 56.175C148.361 56.6085 148.945 57.2092 149.357 57.9233L156.416 72.0643C157.267 73.9435 157.746 75.9702 157.827 78.0317V138.627C157.827 139.255 157.578 139.857 157.134 140.302C156.69 140.745 156.089 140.994 155.462 140.994H7.38492C6.75803 140.994 6.15644 140.745 5.71267 140.301C5.2689 139.857 5.01953 139.255 5.01953 138.627V78.031C5.09765 75.9676 5.5745 73.9391 6.42369 72.0574L13.4896 57.9235C13.9021 57.2092 14.4852 56.6084 15.1868 56.175C15.8885 55.7415 16.6865 55.4891 17.5094 55.4402H51.1349H52.1349V54.4402V41.2062L60.6051 24.2488C61.0176 23.5345 61.6006 22.9338 62.3022 22.5004C63.0039 22.0669 63.8019 21.8145 64.6248 21.7656H98.222C99.0446 21.8145 99.8429 22.0669 100.545 22.5002C101.246 22.9337 101.829 23.5346 102.242 24.2488L110.712 41.2062V54.4402Z" fill="#FFBC44" stroke="black" stroke-width="2"/>
<path d="M158.364 74.6442C158.128 73.6043 157.78 72.5927 157.327 71.627L150.24 57.45C149.744 56.5805 149.038 55.8494 148.187 55.3235C147.335 54.7975 146.366 54.4936 145.367 54.4395H111.713V74.6442H158.364Z" fill="#FFE4B4"/>
<path d="M103.123 23.7761C102.627 22.9067 101.921 22.1756 101.07 21.6496C100.219 21.1237 99.249 20.8198 98.2502 20.7656H64.5963C63.5973 20.8198 62.6278 21.1237 61.7764 21.6496C60.9251 22.1756 60.2192 22.9067 59.7232 23.7761L51.1348 40.9704H111.712L103.123 23.7761Z" fill="#FFE4B4"/>
<path d="M51.1349 54.4395H17.4811C16.482 54.4936 15.5125 54.7975 14.6612 55.3235C13.8099 55.8494 13.104 56.5805 12.608 57.45L5.52049 71.627C4.61036 73.6373 4.10054 75.806 4.01953 78.0117H51.1349V54.4395Z" fill="#FFE4B4"/>
<path d="M111.712 40.9697H51.1348V141.993H111.712V40.9697Z" stroke="#191919" stroke-width="4" stroke-linecap="round" stroke-linejoin="round"/>
<path d="M111.713 74.6442V54.4395H145.367C146.366 54.4936 147.335 54.7975 148.187 55.3235C149.038 55.8494 149.744 56.5805 150.24 57.45L157.327 71.627C158.239 73.6346 158.751 75.8012 158.835 78.0049V138.619C158.835 139.512 158.48 140.369 157.85 141.001C157.218 141.632 156.362 141.987 155.47 141.987H111.713V74.6442Z" stroke="#191919" stroke-width="4" stroke-linecap="round" stroke-linejoin="round"/>
<path d="M51.1349 74.6442V54.4395H17.4811C16.482 54.4936 15.5125 54.7975 14.6612 55.3235C13.8099 55.8494 13.104 56.5805 12.608 57.45L5.52049 71.627C4.61036 73.6373 4.10054 75.806 4.01953 78.0117V138.626C4.01953 139.519 4.37409 140.376 5.00523 141.007C5.63636 141.638 6.49236 141.993 7.38492 141.993H51.1349V74.6442Z" stroke="#191919" stroke-width="4" stroke-linecap="round" stroke-linejoin="round"/>
<path d="M51.1348 40.9704L59.7232 23.7761C60.2192 22.9067 60.9251 22.1756 61.7764 21.6496C62.6278 21.1237 63.5973 20.8198 64.5963 20.7656H98.2502C99.249 20.8198 100.219 21.1237 101.07 21.6496C101.921 22.1756 102.627 22.9067 103.123 23.7761L111.712 40.9704H51.1348Z" stroke="#191919" stroke-width="4" stroke-linecap="round" stroke-linejoin="round"/>
<path d="M111.713 74.6445H158.828" stroke="#191919" stroke-width="4" stroke-linecap="round" stroke-linejoin="round"/>
<path d="M128.754 99.8402C129.079 98.6265 129.737 97.5281 130.653 96.6694C131.57 95.8107 132.708 95.2254 133.939 94.9796C135.171 94.7338 136.447 94.8381 137.622 95.28C138.797 95.7211 139.825 96.4835 140.591 97.4796C141.356 98.4757 141.828 99.6657 141.952 100.916C142.077 102.166 141.85 103.427 141.296 104.554C140.743 105.681 139.885 106.632 138.82 107.297C137.755 107.962 136.525 108.317 135.269 108.319C136.523 108.321 137.75 108.672 138.814 109.333C139.879 109.994 140.738 110.94 141.294 112.063C141.851 113.187 142.083 114.443 141.964 115.691C141.845 116.939 141.381 118.13 140.623 119.128C139.865 120.126 138.844 120.894 137.674 121.343C136.504 121.791 135.232 121.905 134.001 121.67C132.77 121.434 131.63 120.861 130.707 120.012C129.785 119.163 129.118 118.074 128.781 116.866" stroke="#191919" stroke-width="4" stroke-linecap="round" stroke-linejoin="round"/>
<path d="M20.8457 101.585C20.8457 99.7984 21.5549 98.0851 22.8171 96.8223C24.0794 95.5595 25.7913 94.8496 27.5765 94.8496C29.3616 94.8496 31.0736 95.5595 32.3359 96.8223C33.5981 98.0851 34.3072 99.7984 34.3072 101.585C34.3085 103.763 33.5678 105.877 32.2072 107.579L20.8457 121.789H34.3072" stroke="#191919" stroke-width="4" stroke-linecap="round" stroke-linejoin="round"/>
<path d="M78.0586 74.6445H81.424C82.3165 74.6445 83.1726 74.9995 83.804 75.6305C84.4346 76.2623 84.7894 77.1189 84.7894 78.012V101.584" stroke="#191919" stroke-width="4" stroke-linecap="round" stroke-linejoin="round"/>
<path d="M78.0449 101.584H91.5065" stroke="#191919" stroke-width="4" stroke-linecap="round" stroke-linejoin="round"/>
<path d="M4.01953 78.0117H51.1349" stroke="#191919" stroke-width="4" stroke-linecap="round" stroke-linejoin="round"/>
</svg>
